<?xml version="1.0" encoding="UTF-8"?>
<svg xmlns="http://www.w3.org/2000/svg" version="1.2" viewBox="0 0 509 221" width="509" height="221">
  <style>.a{fill:#e76523}.b{fill:#0f73aa}.c{fill:#5e5e5e}</style>
  <path fill-rule="evenodd" class="a" d="m272 3.7v38.8c0.8-0.9 2.3-1.8 4-2.9 2-1.4 6-3.2 12-5.1 6-2.1 12.5-3.2 19.1-3.2 17.7 0 32.5 6 44.5 18.3 12 12 18 26.5 18 44 0 17.1-6 31.7-18.2 43.9-12 12.3-26.9 18.3-44.3 18.3-17.3 0-31.7-5.7-43.9-16.8-12.3-11.2-18.6-26.6-18.6-46.3v-89.3c0 0 27.4 0.3 27.4 0.3zm35.1 53.9c-19.7 0-35.1 15.1-35.1 36 0 20.8 14.9 35.9 35.1 35.9 20.3 0 35.1-15.4 35.1-35.9 0-20.9-15.4-36-35.1-36z"></path>
  <path fill-rule="evenodd" class="a" d="m202.8 155.8h-27.6v-102c0-35.7 20-49.9 47-49.9h6.7v26.7h-5.2c-13.9 0-20.9 7.9-20.9 23.2v102z"></path>
  <path fill-rule="evenodd" class="b" d="m382.3 8.8c6.6-6.6 17.5-6.6 24 0 6.6 6.5 6.6 17.4 0 24-6.5 6.5-17.4 6.5-24 0-6.5-6.7-6.5-17.5 0-24z"></path>
  <path class="b" d="m380.6 155.8v-110.9l27.4 0.3v110.6h-27.4z"></path>
  <path fill-rule="evenodd" class="b" d="m485.5 129.5l18.1 26.3h-23.8c-27.7 0-47.1-13.8-47.1-48.9v-103h27.1v30.2h23.4l21.7 26.3h-45.1v46.5c0 15.2 6.6 22.6 19.9 22.6z"></path>
  <path fill-rule="evenodd" class="a" d="m156.3 75.9c0.9 19.4-5.6 39.1-19.6 54.6-14.1 15.4-33.1 23.8-52.5 24.7-19.3 0.9-39-5.5-54.5-19.6-15.5-14.1-23.8-33.1-24.7-52.4-0.9-19.4 5.5-39.1 19.6-54.6 14-15.4 33-23.8 52.4-24.7 19.4-0.9 39.1 5.5 54.6 19.6 15.4 14.1 23.7 33.1 24.7 52.4zm-25.8 1.3c-0.6-12.8-6.1-25.3-16.3-34.6-10.2-9.3-23.2-13.6-36-12.9-12.7 0.6-25.3 6-34.5 16.3-9.3 10.2-13.6 23.2-13 35.9 0.7 12.8 6.1 25.3 16.3 34.6 10.3 9.3 23.3 13.6 36 12.9 12.8-0.6 25.3-6 34.6-16.3 9.3-10.2 13.5-23.2 12.9-35.9z"></path>
  <path fill-rule="evenodd" class="b" d="m68.8 67.4c6.6-6.7 17.5-6.7 24 0 6.6 6.5 6.6 17.3 0 23.9-6.5 6.6-17.4 6.6-24 0-6.5-6.6-6.5-17.4 0-23.9z"></path>
  <path class="b" d="m4.9 201.9h17.5v1.8h-17.5z"></path>
  <path class="b" d="m487.6 201.9h17.5v1.8h-17.5z"></path>
  <path class="c" d="m31.1 188.8h7.1v2.5h-2.1v17.3h2.1v2.5h-7.1v-2.5h2.1v-17.3h-2.1z"></path>
  <path class="c" d="m51.2 208.6h2.2v-7q0-1.7-0.9-2.6-0.9-0.9-2.6-0.9-0.9-0.1-1.9 0.4-1 0.5-1.8 1.1v9h2.1v2.5h-7.1v-2.5h2.1v-10.2h-2.1v-2.5h4.9v1.8q0.5-0.5 1-0.9 0.6-0.3 1.2-0.6 0.6-0.3 1.3-0.5 0.6-0.1 1.3-0.1 1.3 0 2.2 0.3 1 0.4 1.7 1.1 0.7 0.6 1.1 1.7 0.4 1.1 0.4 2.6v7.3h2.1v2.5h-7.1v-2.5z"></path>
  <path class="c" d="m70.7 208.6h2.2v-7q0-1.7-0.9-2.6-0.9-1-2.6-0.9-0.9-0.1-1.9 0.4-1 0.5-1.8 1.1v9h2.1v2.5h-7.1v-2.5h2.1v-10.2h-2.1v-2.5h4.9v1.8q0.5-0.5 1-0.9 0.6-0.3 1.2-0.6 0.6-0.3 1.3-0.5 0.6-0.1 1.3-0.1 1.3 0 2.2 0.3 1 0.4 1.7 1.1 0.7 0.6 1.1 1.7 0.4 1.1 0.4 2.6v7.3h2.1v2.5h-7.1v-2.5z"></path>
  <path fill-rule="evenodd" class="c" d="m80 203.5q0-1.8 0.6-3.3 0.6-1.5 1.6-2.6 1-1 2.4-1.6 1.4-0.6 3-0.6 1.7 0 3.1 0.6 1.5 0.6 2.5 1.6 1 1.1 1.5 2.6 0.6 1.5 0.6 3.3 0 1.8-0.6 3.2-0.5 1.5-1.5 2.6-1 1.1-2.5 1.7-1.4 0.6-3.1 0.6-1.7 0-3.1-0.6-1.4-0.6-2.4-1.7-1-1-1.5-2.5-0.6-1.5-0.6-3.3zm2.9 0q0 1.3 0.4 2.4 0.4 1 1 1.8 0.7 0.7 1.5 1.1 0.9 0.4 1.9 0.4c0.6 0 1.3-0.1 1.8-0.4q0.9-0.4 1.6-1.1 0.6-0.8 1-1.8 0.4-1.1 0.4-2.4c0-0.9-0.2-1.7-0.4-2.5q-0.4-1-1-1.7-0.7-0.8-1.5-1.1-0.9-0.4-1.9-0.4c-0.7 0-1.3 0.1-1.9 0.4q-0.8 0.3-1.5 1.1-0.6 0.7-1 1.7-0.4 1.1-0.4 2.5z"></path>
  <path class="c" d="m96.4 195.9h5.3v2.5h-1.4l3.8 10.5 3.6-10.5h-0.9v-2.5h4.8v2.5h-1.3l-5 13h-2.7l-4.9-13h-1.3z"></path>
  <path fill-rule="evenodd" class="c" d="m122.2 209.7q-0.9 0.8-1.9 1.3-1.1 0.5-2.4 0.5-1.2 0-2.1-0.3-0.9-0.4-1.6-1-0.7-0.6-1-1.4-0.4-0.8-0.4-1.7 0-1 0.3-1.7 0.3-0.8 0.7-1.3 0.5-0.6 1.2-1 0.6-0.3 1.3-0.6 0.7-0.2 1.4-0.3 0.8-0.1 1.4-0.1 1.1 0 1.8 0.1 0.7 0.1 1.3 0.2v-1.3q0-0.8-0.2-1.4-0.3-0.6-0.7-1-0.4-0.4-1-0.6-0.6-0.2-1.3-0.2-0.7 0-1.3 0.1-0.7 0.1-1.2 0.3-0.6 0.2-1 0.3-0.5 0.2-0.8 0.5l-0.9-1.9q0.5-0.4 1.2-0.7 0.6-0.3 1.3-0.5 0.7-0.2 1.5-0.3 0.7-0.2 1.4-0.2 1.4 0 2.4 0.4 1.1 0.3 1.8 0.9 0.8 0.7 1.1 1.7 0.4 1 0.4 2.5v7.6h1.7v2.5h-4.4v-1.4zm-3.7-0.5q0 0 0 0 0 0 0 0zm1.1-0.1q0.5-0.1 1-0.3 0.5-0.3 0.9-0.6 0.4-0.3 0.7-0.6v-3.4h-3.2q-0.8 0-1.4 0.1-0.7 0.2-1.2 0.5-0.4 0.4-0.7 0.9-0.3 0.5-0.3 1.1 0 0.6 0.3 1.1 0.2 0.4 0.6 0.7 0.4 0.3 0.9 0.5 0.6 0.1 1.3 0.1 0.5 0 1.1-0.1z"></path>
  <path class="c" d="m133.5 195.9h3.6v2.2h-3.6l-0.1 8.8q0 0.9 0.2 1.5 0.3 0.5 0.7 0.7 0.5 0.2 1 0.2 0.7 0 1.1-0.1 0.5-0.1 1.1-0.4l0.6 1.9q-0.7 0.4-1.5 0.6-0.8 0.2-1.8 0.2-1 0-1.8-0.3-0.7-0.2-1.2-0.8-0.5-0.6-0.8-1.5-0.2-1-0.2-2.4v-8.4h-2.4v-2.2h2.4v-3.7l2.7-1.3v5z"></path>
  <path fill-rule="evenodd" class="c" d="m142.3 203.8q0 0.7 0.1 1.2 0.1 0.6 0.3 1 0.5 1.5 1.7 2.2 1.2 0.8 2.7 0.8 1.2 0 2.3-0.3 1.2-0.4 2.4-1.1l1.1 1.9q-1.5 1-3 1.5-1.5 0.5-3.2 0.5-1.5 0-2.8-0.5-1.3-0.5-2.3-1.5-0.9-1-1.5-2.5-0.5-1.6-0.5-3.6 0-1.6 0.4-3.1 0.5-1.4 1.4-2.5 0.9-1.1 2.2-1.7 1.4-0.6 3.2-0.6c1.1 0 2.1 0.1 2.8 0.5q1.2 0.5 1.9 1.4 0.7 0.8 1.1 1.9 0.4 1.1 0.5 2.3 0.1 0.5 0.1 1.1 0 0.6 0.1 1.1h-11zm4.3-6.1q-1 0.1-1.7 0.3-0.7 0.3-1.2 0.8-0.5 0.5-0.8 1.2-0.3 0.8-0.5 1.7h7.9q0-0.9-0.3-1.6-0.2-0.7-0.6-1.2-0.4-0.6-1.1-0.9-0.7-0.3-1.8-0.3z"></path>
  <path class="b" d="m162.5 202.9q0-0.6 0.3-1.1 0.2-0.5 0.5-0.8 0.4-0.4 0.9-0.6 0.5-0.2 1-0.2 0.6 0 1.1 0.2 0.4 0.2 0.8 0.6 0.4 0.3 0.6 0.8 0.2 0.5 0.2 1.1 0 0.5-0.2 1-0.2 0.5-0.6 0.9-0.3 0.3-0.8 0.5-0.5 0.2-1.1 0.2-0.5 0-1-0.2-0.5-0.2-0.9-0.5-0.3-0.4-0.6-0.9-0.2-0.5-0.2-1z"></path>
  <path class="c" d="m177.2 188.8h7.1v2.5h-2.1v17.3h2.1v2.5h-7.1v-2.5h2.1v-17.3h-2.1z"></path>
  <path class="c" d="m197.3 208.6h2.1v-7q0-1.7-0.8-2.6-0.9-1-2.6-0.9-0.9-0.1-1.9 0.4-1 0.5-1.9 1.1v9h2.2v2.5h-7.1v-2.5h2.1v-10.2h-2.1v-2.5h4.8v1.8h0.1q0.4-0.5 1-0.9 0.5-0.3 1.2-0.6 0.6-0.3 1.2-0.5 0.7-0.1 1.4-0.1 1.2 0 2.2 0.3 1 0.4 1.7 1.1 0.7 0.6 1.1 1.7 0.3 1.1 0.3 2.6v7.3h2.2v2.5h-7.2v-2.5z"></path>
  <path class="c" d="m211.2 195.9h3.6v2.2h-3.7v8.8q0 0.9 0.2 1.5 0.2 0.5 0.7 0.7 0.4 0.2 1 0.2 0.6 0 1.1-0.1 0.5-0.1 1-0.4l0.7 1.9q-0.7 0.4-1.5 0.6-0.8 0.2-1.9 0.2-1 0-1.7-0.3-0.8-0.2-1.3-0.8-0.5-0.6-0.7-1.5-0.3-1-0.3-2.4l0.1-8.4h-2.5v-2.2h2.5v-3.7l2.7-1.3v5z"></path>
  <path fill-rule="evenodd" class="c" d="m220 203.8q0 0.7 0.1 1.2 0.1 0.6 0.2 1 0.6 1.5 1.8 2.2 1.2 0.8 2.7 0.8 1.2 0 2.3-0.3 1.1-0.4 2.4-1.1l1.1 1.9q-1.5 1-3.1 1.5-1.5 0.5-3.1 0.5-1.6 0-2.9-0.5-1.3-0.5-2.2-1.5-1-1-1.5-2.5-0.6-1.6-0.6-3.6 0-1.6 0.5-3.1 0.4-1.4 1.4-2.5 0.9-1.1 2.2-1.7 1.3-0.6 3.1-0.6c1.2 0 2.1 0.1 2.9 0.5q1.1 0.5 1.9 1.4 0.7 0.8 1.1 1.9 0.3 1.1 0.5 2.3 0.1 0.5 0.1 1.1 0 0.6 0 1.1h-11zm4.3-6.1q-1 0.1-1.7 0.3-0.7 0.3-1.2 0.8-0.5 0.5-0.8 1.2-0.3 0.8-0.4 1.7h7.9q-0.1-0.9-0.3-1.6-0.2-0.7-0.6-1.2-0.5-0.6-1.2-0.9-0.7-0.3-1.7-0.3z"></path>
  <path fill-rule="evenodd" class="c" d="m245.2 209.8q-0.7 0.8-1.7 1.2-1 0.4-2.3 0.5-1.5 0-2.9-0.6-1.3-0.5-2.3-1.6-0.9-1-1.5-2.5-0.6-1.5-0.5-3.5 0-1.7 0.5-3.2 0.5-1.4 1.5-2.5 1-1 2.3-1.5 1.4-0.6 3.1-0.6 1.1 0 2 0.2 1 0.3 1.8 0.9v-0.7h2.8v14.6q0 3.6-1.7 5.5-1.8 1.8-5.4 1.8-0.8 0-1.6-0.1-0.9-0.1-1.7-0.4-0.9-0.2-1.7-0.6-0.8-0.4-1.5-1l1.5-2.2q0.4 0.3 1 0.7 0.6 0.3 1.2 0.5 0.7 0.3 1.4 0.4 0.7 0.1 1.3 0.1 1.2 0 2-0.2 0.8-0.3 1.4-0.9 0.5-0.5 0.8-1.6 0.2-1 0.2-2.5v-0.3zm-3.6-0.7q0.7 0 1.2-0.1 0.6-0.1 1.1-0.4 0.4-0.2 0.8-0.4 0.3-0.3 0.6-0.6v-8.4q-0.8-0.6-1.8-0.9-1-0.3-2-0.3-1 0-1.8 0.3-0.9 0.4-1.5 1.1-0.6 0.7-1 1.7-0.4 1-0.4 2.3 0 1.4 0.4 2.5 0.3 1 1 1.8 0.6 0.7 1.5 1.1 0.9 0.3 1.9 0.3z"></path>
  <path class="c" d="m262.1 199.1h-2.8v-1q-0.5 0-1 0.2-0.5 0.2-1 0.6-0.4 0.4-0.7 0.9-0.4 0.6-0.5 1.4v7.4h2.6v2.5h-7.6v-2.5h2.1v-10.2h-2.1v-2.5h4.9v2.1q0.3-0.5 0.6-0.9 0.3-0.4 0.7-0.7 0.4-0.3 0.9-0.5 0.5-0.1 1.1-0.1h1.4q0.7 0 1.4 0v3.3z"></path>
  <path fill-rule="evenodd" class="c" d="m273.6 209.7q-0.9 0.8-1.9 1.3-1.1 0.5-2.4 0.5-1.1 0-2.1-0.3-0.9-0.4-1.6-1-0.6-0.6-1-1.4-0.4-0.8-0.4-1.7 0-1 0.3-1.7 0.3-0.8 0.8-1.3 0.4-0.6 1.1-1 0.6-0.3 1.3-0.6 0.7-0.2 1.4-0.3 0.8-0.1 1.4-0.1 1.1 0 1.8 0.1 0.7 0.1 1.3 0.2v-1.3q0-0.8-0.2-1.4-0.2-0.6-0.7-1-0.4-0.4-1-0.6-0.6-0.2-1.3-0.2-0.7 0-1.3 0.1-0.7 0.2-1.2 0.3-0.6 0.2-1 0.3-0.5 0.2-0.8 0.5l-0.9-1.9q0.5-0.4 1.2-0.7 0.6-0.3 1.3-0.5 0.7-0.2 1.5-0.3 0.7-0.2 1.5-0.2 1.3 0 2.3 0.4 1.1 0.3 1.8 0.9 0.8 0.7 1.2 1.7 0.4 1 0.4 2.5v7.6h1.6v2.5h-4.4zm-3.7-0.5q0 0 0 0 0 0.1 0 0zm1.1-0.1q0.5-0.1 1-0.3 0.5-0.3 0.9-0.6 0.4-0.3 0.7-0.6v-3.4h-3.2q-0.8 0-1.4 0.1-0.7 0.2-1.1 0.6-0.5 0.3-0.8 0.8-0.3 0.5-0.3 1.1 0 0.6 0.3 1.1 0.2 0.4 0.6 0.7 0.4 0.3 1 0.5 0.5 0.1 1.2 0.1 0.5 0.1 1.1-0.1zm-1.1 0.1q0 0 0 0z"></path>
  <path class="c" d="m284.9 195.9h3.6v2.2h-3.6v8.8q0 0.9 0.2 1.5 0.2 0.5 0.6 0.7 0.5 0.2 1.1 0.2 0.6 0 1.1-0.1 0.4-0.1 1-0.4l0.6 1.9q-0.7 0.4-1.5 0.6-0.7 0.2-1.8 0.2-1 0-1.7-0.3-0.8-0.2-1.3-0.8-0.5-0.6-0.8-1.5-0.2-1-0.2-2.4v-8.4h-2.4v-2.2h2.5v-3.7l2.6-1.3v5z"></path>
  <path fill-rule="evenodd" class="c" d="m293.7 203.8q0 0.7 0.1 1.2 0.1 0.6 0.3 1 0.5 1.5 1.7 2.2 1.2 0.8 2.7 0.8 1.2 0 2.4-0.3 1.1-0.4 2.3-1.1l1.1 1.9q-1.5 1-3 1.5-1.5 0.5-3.1 0.5-1.6 0-2.9-0.5-1.3-0.5-2.3-1.5-0.9-1-1.5-2.5-0.5-1.6-0.5-3.6 0-1.6 0.5-3.1 0.4-1.4 1.3-2.5 0.9-1.1 2.3-1.7 1.3-0.6 3.1-0.6c1.2 0 2.1 0.1 2.9 0.5q1.1 0.5 1.8 1.4 0.8 0.8 1.1 1.9 0.4 1.1 0.6 2.3 0 0.5 0.1 1.1 0 0.6 0 1.1h-11zm4.3-6.1q-1 0.1-1.7 0.3-0.7 0.3-1.2 0.8-0.5 0.5-0.8 1.2-0.3 0.8-0.4 1.7h7.9q-0.1-0.9-0.3-1.6-0.2-0.7-0.7-1.2-0.4-0.6-1.1-0.9-0.7-0.3-1.7-0.3z"></path>
  <path class="b" d="m314 202.9q0-0.6 0.2-1.1 0.2-0.5 0.6-0.8 0.3-0.4 0.8-0.6 0.5-0.2 1.1-0.2 0.5 0 1 0.2 0.5 0.2 0.8 0.6 0.4 0.3 0.6 0.8 0.2 0.5 0.2 1.1 0 0.5-0.2 1-0.2 0.5-0.6 0.9-0.3 0.3-0.8 0.5-0.5 0.2-1 0.2-0.6 0-1.1-0.2-0.5-0.2-0.8-0.5-0.4-0.4-0.6-0.9-0.2-0.5-0.2-1z"></path>
  <path class="c" d="m333.1 208.6h2.1v-17.4h-5.1v3.5h-3v-5.9h19.9v5.9h-3v-3.5h-5.9v17.4h2.3v2.5h-7.3z"></path>
  <path class="c" d="m359.4 199.1h-2.8v-1q-0.5 0-1 0.2-0.5 0.2-0.9 0.6-0.5 0.4-0.8 0.9-0.3 0.6-0.5 1.4v7.4h2.6v2.5h-7.5v-2.5h2.1v-10.2h-2.1v-2.5h4.8v2.1q0.3-0.5 0.6-0.9 0.4-0.4 0.8-0.7 0.4-0.3 0.9-0.5 0.5-0.1 1-0.1h1.5q0.7 0 1.3 0v3.3z"></path>
  <path fill-rule="evenodd" class="c" d="m371 209.7q-0.9 0.8-2 1.3-1 0.5-2.4 0.5-1.1 0-2-0.3-0.9-0.4-1.6-1-0.7-0.6-1.1-1.4-0.3-0.8-0.3-1.7 0-1 0.2-1.7 0.3-0.8 0.8-1.3 0.5-0.6 1.1-1 0.7-0.3 1.4-0.6 0.7-0.2 1.4-0.3 0.7-0.1 1.4-0.1 1 0 1.8 0.1 0.7 0.1 1.3 0.2v-1.3q0-0.8-0.2-1.4-0.3-0.6-0.7-1-0.4-0.4-1-0.6-0.6-0.2-1.4-0.2-0.7 0-1.3 0.1-0.6 0.2-1.2 0.3-0.5 0.2-1 0.3-0.4 0.2-0.8 0.5l-0.9-1.9q0.6-0.4 1.2-0.7 0.7-0.3 1.4-0.5 0.7-0.2 1.4-0.3 0.8-0.2 1.5-0.2 1.3 0 2.4 0.4 1 0.3 1.8 0.9 0.7 0.7 1.1 1.7 0.4 1 0.4 2.5v7.6h1.7v2.5h-4.4zm-3.8-0.5q0 0 0 0 0 0.1 0 0zm1.1-0.1q0.6-0.1 1.1-0.3 0.4-0.3 0.9-0.6 0.4-0.3 0.6-0.6v-3.4h-3.1q-0.8 0-1.5 0.1-0.6 0.2-1.1 0.6-0.5 0.3-0.7 0.8-0.3 0.5-0.3 1.1 0 0.6 0.2 1.1 0.2 0.4 0.6 0.7 0.4 0.3 1 0.5 0.6 0.1 1.2 0.1 0.6 0.1 1.1-0.1z"></path>
  <path class="c" d="m387.9 208.6h2.1v-7q0-1.7-0.8-2.6-0.9-1-2.6-0.9-0.9-0.1-1.9 0.4-1 0.5-1.9 1.1v9h2.2v2.5h-7.1v-2.5h2.1v-10.2h-2.1v-2.5h4.8v1.8h0.1q0.4-0.5 1-0.9 0.5-0.3 1.2-0.6 0.6-0.3 1.2-0.5 0.7-0.1 1.4-0.1 1.2 0 2.2 0.3 1 0.4 1.7 1.1 0.7 0.6 1.1 1.7 0.3 1.1 0.3 2.6v7.3h2.2v2.5h-7.2v-2.5z"></path>
  <path class="c" d="m405.9 198.9q-0.3-0.4-0.8-0.7-0.4-0.3-1-0.4-0.5-0.1-1.1-0.1-0.6 0-1.1 0.1-0.4 0.1-0.8 0.4-0.4 0.2-0.6 0.6-0.1 0.4-0.2 0.8 0 0.8 0.5 1.2 0.5 0.5 1.6 0.8l2.9 1.1q1.9 0.6 2.7 1.7 0.9 1.1 0.9 2.6 0 1-0.4 1.9-0.4 0.8-1.1 1.4-0.8 0.6-1.8 0.9-1.1 0.4-2.4 0.4-1.7 0-2.9-0.6-1.1-0.6-1.7-1.5h-1.5v-2.6h3q0 0.7 0.3 1.1 0.3 0.5 0.7 0.8 0.5 0.2 1 0.4 0.6 0.1 1.2 0.1 0.6 0 1.1-0.1 0.5-0.2 0.9-0.5 0.4-0.2 0.7-0.6 0.2-0.4 0.2-0.9 0-0.7-0.5-1.2-0.4-0.5-1.6-1l-2.9-1q-1.8-0.7-2.6-1.7-0.9-0.9-0.9-2.4 0-1 0.4-1.8 0.3-0.8 1-1.4 0.7-0.6 1.7-0.9 1-0.4 2.2-0.4 1.7 0 2.8 0.5 1.1 0.4 1.9 1.5h1.5v2.6h-3q0-0.7-0.3-1.1z"></path>
  <path class="c" d="m416.4 195.9h3.5v2.2h-3.5v10.5h2.4v2.5h-7.4v-2.5h2.3v-10.5h-2.5v-2.2h2.5v-2.4q0-1.3 0.3-2.3 0.4-1 1-1.7 0.7-0.6 1.6-1 0.9-0.3 2-0.3 0.8 0 1.4 0.1 0.7 0.1 1.1 0.2 0.5 0.1 0.9 0.3 0.4 0.1 0.7 0.3l-0.9 1.9q-0.4-0.2-1.2-0.4-0.8-0.2-1.6-0.2-1.2 0-1.9 0.8-0.7 0.7-0.7 2.2v2.5z"></path>
  <path fill-rule="evenodd" class="c" d="m421.5 203.5q0-1.8 0.6-3.3 0.6-1.5 1.6-2.6 1-1 2.4-1.6 1.4-0.6 3.1-0.6 1.7 0 3.1 0.6 1.4 0.6 2.4 1.6 1 1.1 1.5 2.6 0.6 1.5 0.6 3.3 0 1.8-0.6 3.2-0.5 1.5-1.5 2.6-1 1.1-2.4 1.7-1.4 0.6-3.1 0.6-1.7 0-3.1-0.6-1.4-0.6-2.4-1.7-1-1-1.6-2.5-0.6-1.5-0.6-3.3zm2.9 0q0 1.3 0.4 2.4 0.4 1 1 1.8 0.7 0.7 1.6 1.1 0.8 0.4 1.8 0.4c0.6 0 1.3-0.1 1.9-0.4q0.9-0.4 1.5-1.1 0.6-0.8 1-1.8 0.4-1.1 0.4-2.4c0-0.9-0.1-1.7-0.4-2.5q-0.4-1-1-1.7-0.6-0.8-1.5-1.1-0.9-0.4-1.9-0.4c-0.7 0-1.3 0.1-1.8 0.4q-0.9 0.3-1.6 1.1-0.6 0.7-1 1.7-0.4 1.1-0.4 2.5z"></path>
  <path class="c" d="m450.1 199.1h-2.8v-1q-0.5 0-1 0.2-0.5 0.2-0.9 0.6-0.5 0.4-0.8 0.9-0.3 0.6-0.5 1.4v7.4h2.6v2.5h-7.5v-2.5h2.1v-10.2h-2.1v-2.5h4.8v2.1q0.3-0.5 0.6-0.9 0.4-0.4 0.8-0.7 0.4-0.3 0.9-0.5 0.5-0.1 1-0.1h1.5q0.7 0 1.3 0v3.3z"></path>
  <path class="c" d="m452.7 195.9h4.8v1.7h0.1q0.5-0.4 1-0.7 0.6-0.4 1.2-0.7 0.6-0.3 1.2-0.4 0.7-0.2 1.4-0.2 1.6 0 2.8 0.6 1.2 0.6 1.9 1.9 0.5-0.5 1.2-0.9 0.6-0.5 1.2-0.8 0.7-0.4 1.5-0.6 0.7-0.2 1.5-0.2 1.2 0 2.2 0.4 1 0.3 1.7 1 0.7 0.7 1 1.7 0.4 1.1 0.4 2.6v7.3h2.1v2.5h-7.1v-2.5h2.1v-7q0.1-1.7-0.8-2.6-0.9-0.9-2.6-0.9-1 0-2 0.4-1 0.5-1.8 1.2v8.9h2.1v2.5h-7.1v-2.5h2.2v-7q0-1.7-0.9-2.6-0.9-0.9-2.6-0.9-0.9 0-1.9 0.4-1 0.5-1.8 1.2v8.9h2.1v2.5h-7.1v-2.5h2.1v-10.2h-2.1c0 0 0-2.5 0-2.5z"></path>
</svg>
